<?xml version="1.0" encoding="UTF-8"?>
<!DOCTYPE svg PUBLIC "-//W3C//DTD SVG 1.1//EN" "http://www.w3.org/Graphics/SVG/1.1/DTD/svg11.dtd">
<!-- Creator: CorelDRAW 2021.5 -->
<svg xmlns="http://www.w3.org/2000/svg" xml:space="preserve" width="1134px" height="216px" version="1.1" style="shape-rendering:geometricPrecision; text-rendering:geometricPrecision; image-rendering:optimizeQuality; fill-rule:evenodd; clip-rule:evenodd"
viewBox="0 0 1477.42 281.24"
 xmlns:xlink="http://www.w3.org/1999/xlink"
 xmlns:xodm="http://www.corel.com/coreldraw/odm/2003">
 <defs>
  <style type="text/css">
   <![CDATA[
    .fil0 {fill:white}
   ]]>
  </style>
 </defs>
 <g id="Слой_x0020_1">
  <metadata id="CorelCorpID_0Corel-Layer"/>
  <path class="fil0" d="M990.56 1.23l0 143.79 -176.24 0 0 -143.79 14.99 0 0 130.64 65.73 0 0 -130.64 15 0 0 130.64 65.52 0 0 -130.64 15 0zm153.31 13.15l-50.53 0 0 130.64 -14.99 0 0 -130.64 -50.53 0 0 -13.15 116.05 0 0 13.15zm98.48 131.87c-14.24,0 -27.15,-3.18 -38.72,-9.55 -11.57,-6.37 -20.61,-15.1 -27.11,-26.19 -6.51,-11.09 -9.76,-23.55 -9.76,-37.38 0,-13.84 3.25,-26.3 9.76,-37.39 6.5,-11.09 15.54,-19.82 27.11,-26.19 11.57,-6.37 24.48,-9.55 38.72,-9.55 14.24,0 27.08,3.15 38.51,9.45 11.44,6.3 20.44,15.03 27.01,26.19 6.58,11.16 9.86,23.65 9.86,37.49 0,13.83 -3.28,26.32 -9.86,37.48 -6.57,11.16 -15.57,19.89 -27.01,26.19 -11.43,6.3 -24.27,9.45 -38.51,9.45zm0 -13.56c11.36,0 21.63,-2.56 30.81,-7.7 9.18,-5.13 16.36,-12.26 21.57,-21.36 5.2,-9.11 7.8,-19.28 7.8,-30.5 0,-11.23 -2.6,-21.4 -7.8,-30.51 -5.21,-9.1 -12.39,-16.22 -21.57,-21.36 -9.18,-5.14 -19.45,-7.7 -30.81,-7.7 -11.37,0 -21.67,2.56 -30.92,7.7 -9.24,5.14 -16.5,12.26 -21.77,21.36 -5.27,9.11 -7.91,19.28 -7.91,30.51 0,11.22 2.64,21.39 7.91,30.5 5.27,9.1 12.53,16.23 21.77,21.36 9.25,5.14 19.55,7.7 30.92,7.7zm176.32 -131.46c18.35,0 32.73,4.38 43.14,13.15 10.4,8.76 15.61,20.81 15.61,36.15 0,15.34 -5.21,27.35 -15.61,36.05 -10.41,8.7 -24.79,13.04 -43.14,13.04l-38.62 0 0 45.4 -15.2 0 0 -143.79 53.82 0zm-0.41 85.04c14.24,0 25.13,-3.11 32.66,-9.35 7.53,-6.23 11.3,-15.02 11.3,-26.39 0,-11.64 -3.77,-20.58 -11.3,-26.81 -7.53,-6.23 -18.42,-9.34 -32.66,-9.34l-38.21 0 0 71.89 38.21 0z"/>
  <path class="fil0" d="M146.66 121.19l0 22.6 -24.65 0 -24.12 0 -97.89 0 0 -143.79 26.29 0 0 121.19 72.51 0 0 -121.19 26.5 0 0 121.19 21.36 0zm143.62 0.21l0 22.39 -107.84 0 0 -143.79 104.96 0 0 22.39 -78.25 0 0 37.38 69.43 0 0 21.98 -69.43 0 0 39.65 81.13 0zm168.89 -121.4l0 143.79 -26.71 0 0 -61.63 -74.35 0 0 61.63 -26.7 0 0 -143.79 26.7 0 0 59.36 74.35 0 0 -59.36 26.71 0zm155.95 22.6l-47.66 0 0 121.19 -26.5 0 0 -121.19 -47.45 0 0 -22.6 121.61 0 0 22.6zm93.5 -22.6c12.46,0 23.31,2.06 32.56,6.16 9.24,4.11 16.32,10 21.25,17.67 4.93,7.67 7.4,16.77 7.4,27.32 0,10.4 -2.47,19.48 -7.4,27.21 -4.93,7.74 -12.01,13.66 -21.25,17.77 -9.25,4.11 -20.1,6.16 -32.56,6.16l-32.46 0 0 41.5 -26.7 0 0 -143.79 59.16 0zm-1.23 79.7c11.63,0 20.47,-2.47 26.49,-7.4 6.03,-4.93 9.04,-11.98 9.04,-21.15 0,-9.18 -3.01,-16.23 -9.04,-21.16 -6.02,-4.93 -14.86,-7.39 -26.49,-7.39l-31.23 0 0 57.1 31.23 0z"/>
  <path class="fil0" d="M128.39 247.88c3.14,0.64 5.52,1.9 7.15,3.76 1.63,1.87 2.45,4.31 2.45,7.31 0,3.91 -1.39,6.92 -4.15,9.02 -2.77,2.1 -6.84,3.16 -12.21,3.16l-19.96 0 0 -45.09 18.74 0c4.81,0 8.56,0.99 11.27,2.97 2.7,1.97 4.06,4.83 4.06,8.56 0,2.54 -0.65,4.67 -1.94,6.41 -1.29,1.74 -3.09,3.04 -5.41,3.9zm-22.02 -1.42l13.78 0c3.48,0 6.15,-0.71 8.02,-2.13 1.87,-1.41 2.8,-3.47 2.8,-6.18 0,-2.7 -0.93,-4.76 -2.8,-6.18 -1.87,-1.42 -4.54,-2.12 -8.02,-2.12l-13.78 0 0 16.61zm15.26 20.87c7.77,0 11.66,-2.9 11.66,-8.7 0,-5.67 -3.89,-8.5 -11.66,-8.5l-15.26 0 0 17.2 15.26 0zm84.87 -0.33l0 14.24 -4.44 0 0 -10.11 -39.35 0 -0.07 10.11 -4.44 0 0.06 -14.24 2.26 0c2.96,-0.17 5.02,-2.52 6.18,-7.05 1.16,-4.53 1.87,-10.96 2.12,-19.29l0.52 -14.62 30.4 0 0 40.96 6.76 0zm-33.43 -25.89c-0.21,6.87 -0.73,12.53 -1.57,16.97 -0.84,4.45 -2.25,7.42 -4.22,8.92l27.76 0 0 -36.83 -21.58 0 -0.39 10.94zm78.11 30.4c-4.47,0 -8.51,-1 -12.14,-2.99 -3.63,-2 -6.46,-4.74 -8.5,-8.21 -2.04,-3.48 -3.06,-7.39 -3.06,-11.73 0,-4.33 1.02,-8.24 3.06,-11.72 2.04,-3.47 4.87,-6.21 8.5,-8.21 3.63,-1.99 7.67,-2.99 12.14,-2.99 4.46,0 8.49,0.99 12.07,2.96 3.59,1.98 6.41,4.71 8.47,8.21 2.06,3.5 3.1,7.42 3.1,11.75 0,4.34 -1.04,8.26 -3.1,11.76 -2.06,3.5 -4.88,6.24 -8.47,8.21 -3.58,1.97 -7.61,2.96 -12.07,2.96zm0 -4.25c3.56,0 6.78,-0.8 9.66,-2.41 2.88,-1.61 5.13,-3.85 6.76,-6.7 1.63,-2.86 2.45,-6.04 2.45,-9.57 0,-3.51 -0.82,-6.7 -2.45,-9.56 -1.63,-2.85 -3.88,-5.09 -6.76,-6.7 -2.88,-1.61 -6.1,-2.41 -9.66,-2.41 -3.56,0 -6.79,0.8 -9.69,2.41 -2.9,1.61 -5.18,3.85 -6.83,6.7 -1.65,2.86 -2.48,6.05 -2.48,9.56 0,3.53 0.83,6.71 2.48,9.57 1.65,2.85 3.93,5.09 6.83,6.7 2.9,1.61 6.13,2.41 9.69,2.41zm49.06 -41.22l12.81 17.84 12.76 -17.84 5.6 0 -15.39 21.64 16.61 23.45 -5.6 0 -13.98 -19.39 -13.97 19.39 -5.47 0 16.55 -23.25 -15.39 -21.84 5.47 0zm92.72 0l0 45.09 -4.7 0 0 -20.81 -28.21 0 0 20.81 -4.76 0 0 -45.09 4.76 0 0 20.1 28.21 0 0 -20.1 4.7 0zm50.16 45.47c-4.47,0 -8.52,-1 -12.14,-2.99 -3.63,-2 -6.46,-4.74 -8.5,-8.21 -2.04,-3.48 -3.06,-7.39 -3.06,-11.73 0,-4.33 1.02,-8.24 3.06,-11.72 2.04,-3.47 4.87,-6.21 8.5,-8.21 3.62,-1.99 7.67,-2.99 12.14,-2.99 4.46,0 8.49,0.99 12.07,2.96 3.59,1.98 6.41,4.71 8.47,8.21 2.06,3.5 3.09,7.42 3.09,11.75 0,4.34 -1.03,8.26 -3.09,11.76 -2.06,3.5 -4.88,6.24 -8.47,8.21 -3.58,1.97 -7.61,2.96 -12.07,2.96zm0 -4.25c3.56,0 6.78,-0.8 9.66,-2.41 2.87,-1.61 5.13,-3.85 6.76,-6.7 1.63,-2.86 2.45,-6.04 2.45,-9.57 0,-3.51 -0.82,-6.7 -2.45,-9.56 -1.63,-2.85 -3.89,-5.09 -6.76,-6.7 -2.88,-1.61 -6.1,-2.41 -9.66,-2.41 -3.57,0 -6.8,0.8 -9.7,2.41 -2.89,1.61 -5.17,3.85 -6.82,6.7 -1.65,2.86 -2.48,6.05 -2.48,9.56 0,3.53 0.83,6.71 2.48,9.57 1.65,2.85 3.93,5.09 6.82,6.7 2.9,1.61 6.13,2.41 9.7,2.41zm76.94 -19.38c3.14,0.64 5.52,1.9 7.15,3.76 1.63,1.87 2.45,4.31 2.45,7.31 0,3.91 -1.38,6.92 -4.16,9.02 -2.77,2.1 -6.83,3.16 -12.2,3.16l-19.96 0 0 -45.09 18.74 0c4.81,0 8.56,0.99 11.27,2.97 2.7,1.97 4.05,4.83 4.05,8.56 0,2.54 -0.64,4.67 -1.93,6.41 -1.29,1.74 -3.09,3.04 -5.41,3.9zm-22.02 -1.42l13.78 0c3.48,0 6.15,-0.71 8.02,-2.13 1.87,-1.41 2.8,-3.47 2.8,-6.18 0,-2.7 -0.93,-4.76 -2.8,-6.18 -1.87,-1.42 -4.54,-2.12 -8.02,-2.12l-13.78 0 0 16.61zm15.26 20.87c7.77,0 11.66,-2.9 11.66,-8.7 0,-5.67 -3.89,-8.5 -11.66,-8.5l-15.26 0 0 17.2 15.26 0zm78.81 -41.29l0 45.09 -4.7 0 0 -40.96 -21.76 0 -0.52 15.07c-0.21,6.22 -0.72,11.23 -1.51,15.03 -0.8,3.8 -2.01,6.64 -3.64,8.5 -1.63,1.87 -3.8,2.81 -6.5,2.81 -1.16,0 -2.37,-0.15 -3.61,-0.45l0.39 -4.25c0.72,0.17 1.43,0.25 2.12,0.25 1.89,0 3.42,-0.75 4.61,-2.25 1.18,-1.5 2.07,-3.83 2.67,-6.99 0.6,-3.16 1.01,-7.33 1.22,-12.52l0.65 -19.33 30.58 0zm62.33 0l0 45.09 -4.7 0 0 -13.66 -13.46 0c-0.6,0 -1.46,-0.04 -2.57,-0.13l-9.47 13.79 -5.09 0 10.24 -14.62c-3.3,-0.99 -5.84,-2.74 -7.6,-5.25 -1.76,-2.51 -2.64,-5.59 -2.64,-9.24 0,-5.07 1.6,-9 4.8,-11.79 3.2,-2.79 7.52,-4.19 12.98,-4.19l17.51 0zm-30.52 15.85c0,3.69 1.08,6.53 3.25,8.53 2.17,2 5.33,3 9.5,3l13.07 0 0 -23.25 -12.62 0c-4.21,0 -7.46,1 -9.76,2.99 -2.3,2 -3.44,4.91 -3.44,8.73zm92.78 25.11l0 4.13 -31.87 0 0 -45.09 30.91 0 0 4.13 -26.15 0 0 16.03 23.31 0 0 4.06 -23.31 0 0 16.74 27.11 0zm72.57 -40.96l0 45.09 -4.57 0 0 -36.07 -17.71 30.33 -2.26 0 -17.71 -30.14 0 35.88 -4.57 0 0 -45.09 3.93 0 19.58 33.43 19.38 -33.43 3.93 0zm90.25 4.13l-15.84 0 0 40.96 -4.7 0 0 -40.96 -15.84 0 0 -4.13 36.38 0 0 4.13zm55.44 36.83l0 4.13 -31.88 0 0 -45.09 30.91 0 0 4.13 -26.14 0 0 16.03 23.31 0 0 4.06 -23.31 0 0 16.74 27.11 0zm40.69 -16.55l-10.31 0 0 20.68 -4.64 0 0 -45.09 4.64 0 0 20.23 10.31 0 15.26 -20.23 5.15 0 -16.74 21.9 17.71 23.19 -5.48 0 -15.9 -20.68zm63.55 21.06c-4.47,0 -8.49,-0.99 -12.08,-2.96 -3.58,-1.97 -6.39,-4.71 -8.43,-8.21 -2.04,-3.5 -3.06,-7.42 -3.06,-11.76 0,-4.33 1.02,-8.25 3.06,-11.75 2.04,-3.5 4.86,-6.23 8.47,-8.21 3.6,-1.97 7.64,-2.96 12.1,-2.96 3.35,0 6.44,0.56 9.27,1.67 2.84,1.12 5.24,2.75 7.22,4.9l-3.03 3.02c-3.52,-3.56 -7.96,-5.34 -13.33,-5.34 -3.56,0 -6.8,0.82 -9.72,2.45 -2.92,1.63 -5.21,3.86 -6.86,6.69 -1.65,2.84 -2.48,6.02 -2.48,9.53 0,3.53 0.83,6.7 2.48,9.54 1.65,2.83 3.94,5.06 6.86,6.69 2.92,1.64 6.16,2.45 9.72,2.45 5.41,0 9.85,-1.8 13.33,-5.41l3.03 3.03c-1.98,2.15 -4.39,3.79 -7.25,4.93 -2.85,1.13 -5.95,1.7 -9.3,1.7zm70.5 -41.34l-15.84 0 0 40.96 -4.7 0 0 -40.96 -15.84 0 0 -4.13 36.38 0 0 4.13zm23.56 -4.13l4.7 0 0 37.36 28.85 -37.36 4.32 0 0 45.09 -4.7 0 0 -37.29 -28.85 37.29 -4.32 0 0 -45.09zm102.9 0l0 45.09 -4.7 0 0 -40.96 -21.77 0 -0.51 15.07c-0.22,6.22 -0.72,11.23 -1.52,15.03 -0.79,3.8 -2,6.64 -3.64,8.5 -1.62,1.87 -3.79,2.81 -6.5,2.81 -1.16,0 -2.36,-0.15 -3.61,-0.45l0.39 -4.25c0.73,0.17 1.44,0.25 2.13,0.25 1.88,0 3.42,-0.75 4.6,-2.25 1.18,-1.5 2.07,-3.83 2.67,-6.99 0.6,-3.16 1.01,-7.33 1.23,-12.52l0.64 -19.33 30.59 0zm62.26 40.96l0 4.13 -31.87 0 0 -45.09 30.91 0 0 4.13 -26.15 0 0 16.03 23.31 0 0 4.06 -23.31 0 0 16.74 27.11 0zm72.57 -40.96l0 45.09 -4.57 0 0 -36.07 -17.71 30.33 -2.26 0 -17.71 -30.14 0 35.88 -4.57 0 0 -45.09 3.93 0 19.58 33.43 19.38 -33.43 3.93 0z"/>
 </g>
</svg>
