<svg width="70" height="48" viewBox="0 0 70 48" fill="none" xmlns="http://www.w3.org/2000/svg">
<rect width="70" height="48" fill="white"/>
<g clip-path="url(#clip0_6415_653)">
<path d="M19.6115 25.394L23.0423 27.6484L23.0421 31.831L19.5957 37.9997L19.6115 25.394Z" fill="#62B22F"/>
<path d="M16.7663 23.6133L20.1894 25.5958L10.0273 31.7641L13.3442 25.7306L16.7663 23.6133Z" fill="#974995"/>
<path d="M32.7285 17.9132L26.1887 17.8806L23.0388 15.988L19.6152 10L32.7285 17.9132Z" fill="#EE7024"/>
<path d="M19.6164 10L23.04 15.988L23.047 24.2391L19.5957 23.1851L19.6164 10Z" fill="#FBB61B"/>
<path d="M10 16.0244L13.3554 22.1211L13.3445 25.7305L10.0277 31.7639L10 16.0244Z" fill="#5A58A3"/>
<path d="M10 16.0244L32.6774 29.892L26.1791 29.9375L13.3554 22.1211L10 16.0244Z" fill="#2188CB"/>
<path d="M26.1889 17.8809L32.7287 17.9135L23.049 23.861L23.0391 19.7992L26.1889 17.8809Z" fill="#DA0954"/>
<path d="M45.0481 18.8635C45.8437 18.1385 46.9328 17.773 48.0042 17.8065C49.124 17.7838 50.2517 17.8599 51.3655 17.7275C51.1244 18.4664 50.6351 19.1065 50.309 19.8138C49.5065 19.8286 48.703 19.799 47.9014 19.8266C46.8706 19.9106 45.8882 20.7453 45.7874 21.7953C46.7253 20.8608 48.193 20.7976 49.4086 21.1048C50.2231 21.3814 50.9485 21.9919 51.244 22.8137C51.5168 23.5358 51.5612 24.329 51.3833 25.0787C51.1135 26.107 50.2863 26.9032 49.3108 27.2795C48.1604 27.7122 46.837 27.7349 45.6915 27.2765C44.6044 26.834 43.8354 25.8067 43.5725 24.6796C43.2847 23.6767 43.3231 22.192 43.6182 21.1725C43.8728 20.293 44.374 19.4817 45.0481 18.8635H45.0481ZM47.8313 22.7791C47.2197 22.6581 46.5308 22.9071 46.2134 23.4447C45.6374 24.4202 46.4291 25.8774 47.7206 25.6941C49.1303 25.4941 49.4964 23.2231 47.8313 22.7791ZM38.7247 20.2553C39.9918 19.9441 41.4407 20.035 42.5229 20.8243C42.1651 21.4011 41.842 21.9978 41.5138 22.5914C40.9851 22.4156 40.4711 22.136 39.8989 22.1499C39.292 22.1311 38.6348 22.3682 38.2899 22.8897C37.9222 23.4419 37.9044 24.2005 38.2622 24.7636C38.5804 25.295 39.2061 25.541 39.8001 25.5963C40.2636 25.5439 40.735 25.4787 41.164 25.2821C41.2668 25.2179 41.3853 25.2209 41.502 25.2288C41.7115 25.8274 42.1701 26.3223 42.351 26.9278C41.1837 27.5511 39.7921 27.6785 38.5142 27.3683C37.6337 27.1095 36.7945 26.6058 36.2905 25.8214C35.4929 24.5986 35.5236 22.8689 36.4397 21.7172C36.9922 20.9724 37.8372 20.4874 38.7248 20.2553L38.7247 20.2553ZM52.6138 20.2869C55.0758 20.2691 57.5387 20.2681 59.9997 20.2869C59.9779 22.624 59.9918 24.9631 59.9937 27.3002C59.1655 27.3042 58.3363 27.3061 57.5081 27.2992C57.5466 25.7652 57.4695 24.2331 57.518 22.704C57.5219 22.5845 57.4943 22.4738 57.4359 22.3711C56.6799 22.3879 55.9218 22.3889 55.1657 22.3701C55.1183 24.0099 55.1568 25.6535 55.1469 27.2953C54.3039 27.3101 53.4608 27.3022 52.6188 27.2992C52.6198 24.9611 52.6297 22.624 52.6138 20.2869V20.2869Z" fill="#1B1537"/>
<path d="M23.0421 31.8311L26.179 29.9376L32.6773 29.8921L19.5957 37.9999L23.0421 31.8311Z" fill="#037F37"/>
</g>
<defs>
<clipPath id="clip0_6415_653">
<rect width="50" height="28" fill="white" transform="translate(10 10)"/>
</clipPath>
</defs>
</svg>
