<svg width="70" height="48" viewBox="0 0 70 48" fill="none" xmlns="http://www.w3.org/2000/svg">
<rect width="70" height="48" fill="white"/>
<g clip-path="url(#clip0_6415_630)">
<path fill-rule="evenodd" clip-rule="evenodd" d="M12.1785 16.0026C12.6788 15.9996 14.1657 15.8657 14.7955 17.9913C15.2197 19.4231 15.8955 21.7685 16.8228 25.0274H17.2005C18.195 21.5916 18.8782 19.2462 19.25 17.9913C19.8864 15.8436 21.4773 16.0026 22.1136 16.0026L27.0233 16.0027V31.2753H22.0192V22.2749H21.6837L18.8941 31.2753H15.1292L12.3397 22.2682H12.0041V31.2753H7V16.0027L12.1785 16.0026ZM34.2091 16.0027V25.0098H34.6083L38.0015 17.6033C38.6602 16.1294 40.0641 16.0027 40.0641 16.0027H44.9065V31.2754H39.7979V22.2682H39.3987L36.0721 29.6747C35.4134 31.142 33.943 31.2754 33.943 31.2754H29.1005V16.0027H34.2091ZM62.5642 23.2604C61.8516 25.2797 59.6137 26.7259 57.1361 26.7259H51.7788V31.2754H46.9208V23.2604H62.5642Z" fill="#0F754E"/>
<path fill-rule="evenodd" clip-rule="evenodd" d="M57.3704 16.0029H46.666C46.9208 19.4032 49.849 22.314 52.8802 22.314H62.9017C63.48 19.488 61.4892 16.0029 57.3704 16.0029Z" fill="url(#paint0_linear_6415_630)"/>
</g>
<defs>
<linearGradient id="paint0_linear_6415_630" x1="63" y1="19.9728" x2="46.666" y2="19.9728" gradientUnits="userSpaceOnUse">
<stop stop-color="#1F5CD7"/>
<stop offset="1" stop-color="#02AEFF"/>
</linearGradient>
<clipPath id="clip0_6415_630">
<rect width="56" height="15.2727" fill="white" transform="translate(7 16)"/>
</clipPath>
</defs>
</svg>
