<svg width="192" height="36" viewBox="0 0 192 36" fill="none" xmlns="http://www.w3.org/2000/svg">
<path fill-rule="evenodd" clip-rule="evenodd" d="M128.726 0.169256V18.858H105.82V0.169256H107.767V17.1442H116.307V0.169256H118.254V17.1442H126.766V0.169256H128.726ZM148.656 1.87592H142.09V18.8509H140.144V1.87592H133.578V0.169256H148.663V1.87592H148.656ZM161.449 19.0131C159.601 19.0131 157.923 18.597 156.414 17.7719C154.912 16.9468 153.734 15.8113 152.888 14.3656C152.041 12.9269 151.618 11.3049 151.618 9.50656C151.618 7.70821 152.041 6.09322 152.888 4.64749C153.734 3.20882 154.905 2.07339 156.414 1.24121C157.916 0.416088 159.594 0 161.449 0C163.297 0 164.968 0.409036 166.456 1.22711C167.944 2.04518 169.115 3.18061 169.968 4.63339C170.822 6.08617 171.252 7.70821 171.252 9.50656C171.252 11.3049 170.822 12.9269 169.968 14.3797C169.115 15.8325 167.944 16.9679 166.456 17.786C164.968 18.6041 163.304 19.0131 161.449 19.0131ZM161.449 17.25C162.923 17.25 164.263 16.9186 165.455 16.2486C166.647 15.5786 167.585 14.6548 168.255 13.47C168.932 12.2852 169.27 10.9664 169.27 9.50656C169.27 8.04672 168.932 6.72793 168.255 5.54314C167.578 4.35835 166.647 3.43449 165.455 2.76452C164.263 2.09455 162.93 1.76309 161.449 1.76309C159.975 1.76309 158.635 2.09455 157.429 2.76452C156.23 3.43449 155.285 4.35835 154.601 5.54314C153.917 6.72793 153.572 8.04672 153.572 9.50656C153.572 10.9664 153.917 12.2852 154.601 13.47C155.285 14.6548 156.23 15.5786 157.429 16.2486C158.635 16.9186 159.975 17.25 161.449 17.25ZM184.362 0.169256C186.746 0.169256 188.615 0.740496 189.969 1.87592C191.323 3.0184 192 4.58402 192 6.57278C192 8.56859 191.323 10.1272 189.969 11.2555C188.615 12.3839 186.746 12.9481 184.362 12.9481H179.341V18.8439H177.366V0.169256H184.362ZM184.313 11.2203C186.161 11.2203 187.578 10.8183 188.558 10.0073C189.539 9.19625 190.025 8.05377 190.025 6.57983C190.025 5.07063 189.539 3.907 188.558 3.09598C187.578 2.28496 186.168 1.88298 184.313 1.88298H179.348V11.2203H184.313Z" fill="#292523"/>
<path fill-rule="evenodd" clip-rule="evenodd" d="M19.0625 15.7551V18.6889H15.8607H14.4432H0V0.0072403H3.41333V15.7551H12.8353V0.0072403H16.2768V15.7551H19.0625ZM37.723 15.7833V18.6959H23.71V0.0072403H37.3492V2.91986H27.1797V7.77892H36.1997V10.6351H27.1797V15.7904H37.723V15.7833ZM59.6699 0.0072403V18.6959H56.2001V10.6845H46.5384V18.6959H43.0686V0.0072403H46.5384V7.7225H56.2001V0.0072403H59.6699ZM79.9383 2.94101H73.7463V18.6959H70.3048V2.94101H64.141V0.0072403H79.9453V2.94101H79.9383ZM92.0895 0.0072403C93.7115 0.0072403 95.122 0.275229 96.3209 0.811207C97.5198 1.34719 98.4436 2.10884 99.0854 3.11027C99.7272 4.10465 100.045 5.28944 100.045 6.6576C100.045 8.01165 99.7272 9.18939 99.0854 10.1908C98.4436 11.1993 97.5268 11.968 96.3209 12.4969C95.122 13.0329 93.7115 13.3009 92.0895 13.3009H87.8722V18.6959H84.4024V0.0072403H92.0895ZM91.9273 10.3671C93.4365 10.3671 94.586 10.0498 95.3688 9.40801C96.1516 8.76625 96.5466 7.84944 96.5466 6.6576C96.5466 5.46575 96.1516 4.54895 95.3688 3.90719C94.586 3.26542 93.4365 2.94807 91.9273 2.94807H87.8722V10.3671H91.9273Z" fill="#292523"/>
<path fill-rule="evenodd" clip-rule="evenodd" d="M19.1475 29.3801H19.761V34.2321L23.5129 29.3801H24.077V35.2406H23.4635V30.3956L19.7116 35.2406H19.1475V29.3801ZM32.9136 29.3801V35.2406H32.3001V32.5395H28.6329V35.2406H28.0123V29.3801H28.6329V31.9894H32.3001V29.3801H32.9136ZM40.6994 29.9161H38.6401V35.2406H38.0266V29.9161H35.9673V29.3801H40.6924V29.9161H40.6994ZM47.8999 34.7046V35.2406H43.7601V29.3801H47.78V29.9161H44.3807V31.9965H47.4132V32.5254H44.3807V34.7046H47.8999ZM53.443 29.3801C54.1905 29.3801 54.7759 29.5564 55.199 29.9161C55.6222 30.2757 55.8337 30.7623 55.8337 31.39C55.8337 32.0177 55.6222 32.5043 55.199 32.8569C54.7759 33.2095 54.1905 33.3858 53.443 33.3858H51.8703V35.2335H51.2497V29.373H53.443V29.3801ZM53.4218 32.8498C54.0001 32.8498 54.4444 32.7229 54.7547 32.469C55.065 32.2151 55.2131 31.8555 55.2131 31.39C55.2131 30.9175 55.058 30.5508 54.7547 30.2969C54.4444 30.043 54.0072 29.9161 53.4218 29.9161H51.8633V32.8428H53.4218V32.8498ZM61.532 31.4746C62.2232 31.4746 62.7521 31.6298 63.1188 31.9401C63.4855 32.2504 63.6689 32.7088 63.6689 33.3153C63.6689 33.9429 63.4714 34.4225 63.0906 34.754C62.7027 35.0784 62.1456 35.2406 61.4121 35.2406H59.0849V29.3801H59.6984V31.4746H61.532ZM61.391 34.7469C61.934 34.7469 62.3431 34.627 62.6251 34.3872C62.9072 34.1475 63.0483 33.7948 63.0483 33.3223C63.0483 32.4267 62.4982 31.9753 61.391 31.9753H59.6914V34.7469H61.391ZM71.1373 34.7046V35.2406H66.9976V29.3801H71.0174V29.9161H67.6182V31.9965H70.6507V32.5254H67.6182V34.7046H71.1373ZM76.6734 29.3801C77.421 29.3801 78.0063 29.5564 78.4294 29.9161C78.8526 30.2757 79.0642 30.7623 79.0642 31.39C79.0642 32.0177 78.8526 32.5043 78.4294 32.8569C78.0063 33.2095 77.421 33.3858 76.6734 33.3858H75.1007V35.2335H74.4801V29.373H76.6734V29.3801ZM76.6593 32.8498C77.2376 32.8498 77.6819 32.7229 77.9922 32.469C78.3025 32.2151 78.4506 31.8555 78.4506 31.39C78.4506 30.9175 78.2954 30.5508 77.9922 30.2969C77.6819 30.043 77.2446 29.9161 76.6593 29.9161H75.1007V32.8428H76.6593V32.8498ZM87.2096 29.3801V35.2406H86.5961V32.5395H82.9288V35.2406H82.3082V29.3801H82.9288V31.9894H86.5961V29.3801H87.2096ZM93.6131 31.4746C94.3043 31.4746 94.8332 31.6298 95.1999 31.9401C95.5666 32.2504 95.75 32.7088 95.75 33.3153C95.75 33.9429 95.5596 34.4225 95.1717 34.754C94.7838 35.0784 94.2267 35.2406 93.4932 35.2406H91.166V29.3801H91.7795V31.4746H93.6131ZM93.4721 34.7469C94.0151 34.7469 94.4241 34.627 94.7062 34.3872C94.9883 34.1475 95.1294 33.7948 95.1294 33.3223C95.1294 32.4267 94.5793 31.9753 93.4721 31.9753H91.7725V34.7469H93.4721ZM96.7585 29.3801H97.372V35.2406H96.7585V29.3801ZM101.321 29.3801H101.935V34.2321L105.687 29.3801H106.251V35.2406H105.637V30.3956L101.886 35.2406H101.321V29.3801ZM103.761 28.9569C103.345 28.9569 103.014 28.8653 102.767 28.6748C102.527 28.4844 102.4 28.2235 102.393 27.8779H102.852C102.859 28.1036 102.943 28.2799 103.106 28.4069C103.268 28.5338 103.486 28.5973 103.761 28.5973C104.029 28.5973 104.248 28.5338 104.41 28.4069C104.572 28.2799 104.657 28.1036 104.664 27.8779H105.123C105.116 28.2164 104.989 28.4844 104.749 28.6748C104.502 28.8582 104.178 28.9569 103.761 28.9569ZM117.972 29.9161H115.913V35.2406H115.299V29.9161H113.24V29.3801H117.965V29.9161H117.972ZM125.172 34.7046V35.2406H121.033V29.3801H125.052V29.9161H121.653V31.9965H124.686V32.5254H121.653V34.7046H125.172ZM130.462 32.5536H129.122V35.2406H128.522V29.3801H129.122V32.0106H130.462L132.443 29.3801H133.113L130.934 32.2292L133.233 35.2406H132.521L130.462 32.5536ZM138.72 35.2899C138.142 35.2899 137.62 35.163 137.147 34.9021C136.682 34.6482 136.315 34.2885 136.054 33.8372C135.786 33.3858 135.659 32.871 135.659 32.3068C135.659 31.7426 135.793 31.2348 136.054 30.7764C136.322 30.3251 136.689 29.9654 137.154 29.7115C137.62 29.4577 138.149 29.3237 138.727 29.3237C139.164 29.3237 139.566 29.3942 139.933 29.5423C140.3 29.6904 140.617 29.902 140.871 30.177L140.476 30.5719C140.018 30.1065 139.439 29.8737 138.741 29.8737C138.276 29.8737 137.86 29.9795 137.479 30.1911C137.098 30.4027 136.802 30.6918 136.59 31.0585C136.379 31.4253 136.266 31.8413 136.266 32.2997C136.266 32.7582 136.371 33.1672 136.59 33.541C136.802 33.9077 137.105 34.1968 137.479 34.4084C137.86 34.62 138.283 34.7258 138.741 34.7258C139.446 34.7258 140.025 34.493 140.476 34.0205L140.871 34.4155C140.617 34.6975 140.3 34.9091 139.926 35.0572C139.559 35.2194 139.157 35.2899 138.72 35.2899ZM147.881 29.9161H145.822V35.2406H145.208V29.9161H143.149V29.3801H147.874V29.9161H147.881ZM150.942 29.3801H151.555V34.2321L155.307 29.3801H155.871V35.2406H155.258V30.3956L151.506 35.2406H150.942V29.3801ZM164.313 29.3801V35.2406H163.699V29.9161H160.871L160.808 31.8766C160.78 32.6876 160.716 33.3364 160.61 33.8301C160.505 34.3238 160.349 34.6905 160.138 34.9373C159.926 35.1771 159.644 35.304 159.292 35.304C159.143 35.304 158.981 35.2829 158.826 35.2476L158.876 34.6975C158.967 34.7187 159.059 34.7328 159.151 34.7328C159.397 34.7328 159.595 34.6341 159.75 34.4366C159.905 34.2391 160.018 33.9359 160.096 33.5269C160.173 33.1178 160.23 32.5748 160.258 31.8978L160.342 29.3871H164.313V29.3801ZM170.716 31.4746C171.408 31.4746 171.936 31.6298 172.303 31.9401C172.67 32.2504 172.853 32.7088 172.853 33.3153C172.853 33.9429 172.663 34.4225 172.275 34.754C171.887 35.0784 171.33 35.2406 170.596 35.2406H168.269V29.3801H168.883V31.4746H170.716ZM170.575 34.7469C171.118 34.7469 171.527 34.627 171.81 34.3872C172.092 34.1475 172.233 33.7948 172.233 33.3223C172.233 32.4267 171.683 31.9753 170.575 31.9753H168.876V34.7469H170.575Z" fill="#292523"/>
</svg>
