<svg width="70" height="48" viewBox="0 0 70 48" fill="none" xmlns="http://www.w3.org/2000/svg">
<rect width="70" height="48" fill="white"/>
<g clip-path="url(#clip0_6415_645)">
<path d="M19.1864 11.131C20.3615 10.9706 21.5522 11.0037 22.7359 11.002C31.2999 11.0002 39.8657 11.0037 48.4297 11.0002C49.7124 10.995 51.0054 11.0787 52.25 11.4099C55.8602 12.3147 59.0088 14.8807 60.656 18.2296C61.8501 20.5987 62.2476 23.3495 61.8519 25.9697C61.4301 28.8914 59.9461 31.6336 57.7713 33.6104C55.4315 35.7582 52.2864 36.9836 49.117 36.9924C39.8657 37.0063 30.6143 36.9941 21.3648 36.9994C19.78 37.0116 18.1849 36.8077 16.6904 36.2655C13.5298 35.1829 10.8464 32.7964 9.36065 29.7963C8.13173 27.3452 7.72212 24.5002 8.18546 21.7981C8.73222 18.5556 10.5721 15.5624 13.2 13.603C14.9426 12.2851 17.0238 11.4239 19.1864 11.131V11.131Z" fill="#219F38"/>
<path d="M42.6458 25.4363C43.361 25.2184 44.1264 25.3212 44.8624 25.2986C45.1019 26.5346 43.597 27.2266 42.6129 26.7734C42.0801 26.5328 42.0679 25.6229 42.6458 25.4363V25.4363ZM34.7397 20.3948C35.7569 20.4331 36.826 20.2623 37.8015 20.6249C38.6034 20.9178 38.7406 21.9463 38.4906 22.6627C38.317 23.2503 37.7338 23.5919 37.1628 23.6843C36.3609 23.8133 35.5451 23.7261 34.738 23.7488C34.7467 22.6314 34.7484 21.5122 34.7397 20.3948ZM47.157 21.5245C48.0665 23.775 49.0003 26.0151 49.9272 28.2586C49.7363 28.6823 49.5991 29.2507 49.1079 29.4145C48.726 29.5591 48.3546 29.3256 48.0335 29.146C48.0491 29.6324 48.0474 30.1188 48.0301 30.6033C48.5855 30.9067 49.2746 30.9659 49.8664 30.7411C50.5207 30.4133 50.835 29.7004 51.0918 29.0554C51.984 26.5468 52.8674 24.0348 53.7718 21.5314C53.2302 21.5262 52.6886 21.5262 52.1472 21.5245C51.6247 23.0237 51.2185 24.5665 50.6423 26.0465C50.0365 24.5438 49.4637 23.0272 48.8545 21.5245C48.2886 21.528 47.7228 21.528 47.157 21.5245V21.5245ZM41.1636 21.9934C41.1688 22.6436 41.1688 23.2939 41.1497 23.944C41.804 22.9504 43.1267 22.5425 44.2428 22.8859C44.8277 23.0847 44.8329 23.782 44.8658 24.2945C43.9703 24.2997 43.0642 24.2578 42.1773 24.4113C41.5038 24.5246 40.8252 25.0023 40.7175 25.7187C40.5527 26.5502 40.754 27.584 41.5541 28.0199C42.698 28.63 44.3764 28.2657 44.9371 27.0193C44.9336 27.4115 44.9353 27.802 44.9371 28.1942C45.4213 28.196 45.9056 28.196 46.3898 28.1942C46.3707 26.5851 46.428 24.9744 46.3603 23.3671C46.336 22.4675 45.6365 21.6971 44.767 21.5314C43.571 21.2996 42.2224 21.3204 41.1636 21.9934L41.1636 21.9934ZM26.3042 19.5406C24.4557 20.9387 22.5967 22.3211 20.7395 23.7052C19.8577 23.13 18.9604 22.5773 18.0769 22.0055C18.0769 22.6959 18.0717 23.3862 18.0822 24.0748C18.9777 24.6135 19.8525 25.1853 20.7307 25.7536C22.883 24.1655 25.0163 22.5512 27.1581 20.9492C26.9012 20.4628 26.6304 19.9834 26.3042 19.5406H26.3042ZM33.0891 18.8467C33.0942 21.9637 33.0995 25.0789 33.0961 28.1942C33.6428 28.1942 34.1895 28.1942 34.7363 28.1976C34.7623 27.2319 34.745 26.2643 34.7485 25.2986C36.196 25.2847 37.7738 25.4154 39.0513 24.5961C40.327 23.7715 40.5579 21.9759 40.058 20.637C39.6675 19.6225 38.5861 19.1118 37.5725 18.9722C36.0867 18.77 34.5836 18.8694 33.0891 18.8467H33.0891ZM13.7237 23.7192C13.6196 26.3655 15.1575 28.9839 17.4885 30.2094C18.6861 30.9171 20.1216 31.1437 21.4928 31.0095C23.8759 30.7638 26.0439 29.1616 27.054 26.9896C27.7483 25.6542 27.8629 24.0975 27.6529 22.6244C27.153 23.0114 26.6392 23.3793 26.1445 23.7715C26.1792 25.7239 25.1378 27.6608 23.4524 28.6458C22.1107 29.4459 20.4097 29.6167 18.9448 29.0676C16.987 28.3894 15.5463 26.4771 15.3814 24.4113C15.1367 22.1678 16.4436 19.8719 18.4849 18.9357C20.172 18.1146 22.2566 18.3082 23.7978 19.3663C24.2596 19.0246 24.7143 18.6759 25.1743 18.3343C23.8759 17.365 22.3035 16.7357 20.6685 16.7636C16.9922 16.7235 13.7377 20.0479 13.7238 23.7193L13.7237 23.7192Z" fill="white"/>
</g>
<defs>
<clipPath id="clip0_6415_645">
<rect width="54" height="26" fill="white" transform="translate(8 11)"/>
</clipPath>
</defs>
</svg>
