<svg width="32" height="32" viewBox="0 0 32 32" fill="none" xmlns="http://www.w3.org/2000/svg">
<path fill-rule="evenodd" clip-rule="evenodd" d="M17.8855 16.0002L24.9428 8.94284C25.4642 8.4215 25.4642 7.57884 24.9428 7.0575C24.4215 6.53617 23.5788 6.53617 23.0575 7.0575L16.0002 14.1148L8.94284 7.0575C8.4215 6.53617 7.57884 6.53617 7.0575 7.0575C6.53617 7.57884 6.53617 8.4215 7.0575 8.94284L14.1148 16.0002L7.0575 23.0575C6.53617 23.5788 6.53617 24.4215 7.0575 24.9428C7.3175 25.2028 7.65884 25.3335 8.00017 25.3335C8.3415 25.3335 8.68284 25.2028 8.94284 24.9428L16.0002 17.8855L23.0575 24.9428C23.3175 25.2028 23.6588 25.3335 24.0002 25.3335C24.3415 25.3335 24.6828 25.2028 24.9428 24.9428C25.4642 24.4215 25.4642 23.5788 24.9428 23.0575L17.8855 16.0002Z" fill="#292523"/>
</svg>
